<svg viewBox="0 0 17.917 17.916" xmlns="http://www.w3.org/2000/svg" xmlns:xlink="http://www.w3.org/1999/xlink" width="17.916992" height="17.916016" fill="none" customFrame="#000000">
	<path id="Vector" d="M4.30309 0.158122C5.47933 -1.88224e-05 6.98685 -1.05526e-05 8.91052 0L9.00615 0C10.9298 -1.05526e-05 12.4373 -1.88229e-05 13.6136 0.158122C14.8175 0.319989 15.7675 0.657772 16.5132 1.40345C17.2589 2.14912 17.5967 3.09914 17.7585 4.30309C17.9167 5.47933 17.9167 6.98686 17.9167 8.91052L17.9167 9.00614C17.9167 10.9298 17.9167 12.4373 17.7585 13.6136C17.5967 14.8175 17.2589 15.7675 16.5132 16.5132C15.7675 17.2589 14.8175 17.5967 13.6136 17.7585C12.4373 17.9167 10.9298 17.9167 9.00614 17.9167L8.91052 17.9167C6.98686 17.9167 5.47933 17.9167 4.30309 17.7585C3.09914 17.5967 2.14912 17.2589 1.40345 16.5132C0.657772 15.7675 0.319989 14.8175 0.158122 13.6136C-1.88224e-05 12.4373 -1.05526e-05 10.9298 0 9.00615L0 8.91052C-1.05526e-05 6.98685 -1.88229e-05 5.47933 0.158122 4.30309C0.319989 3.09914 0.657772 2.14912 1.40345 1.40345C2.14912 0.657772 3.09914 0.319989 4.30309 0.158122ZM4.46965 1.39698C3.40431 1.54021 2.76204 1.81262 2.28733 2.28733C1.81262 2.76204 1.54021 3.40431 1.39698 4.46965C1.25133 5.55296 1.25 6.97648 1.25 8.95833C1.25 10.9402 1.25133 12.3637 1.39698 13.447C1.54021 14.5124 1.81262 15.1546 2.28733 15.6293C2.76204 16.104 3.40431 16.3765 4.46965 16.5197C5.55296 16.6653 6.97648 16.6667 8.95833 16.6667C10.9402 16.6667 12.3637 16.6653 13.447 16.5197C14.5124 16.3765 15.1546 16.104 15.6293 15.6293C16.104 15.1546 16.3765 14.5124 16.5197 13.447C16.6653 12.3637 16.6667 10.9402 16.6667 8.95833C16.6667 6.97648 16.6653 5.55296 16.5197 4.46965C16.3765 3.40431 16.104 2.76204 15.6293 2.28733C15.1546 1.81262 14.5124 1.54021 13.447 1.39698C12.3637 1.25133 10.9402 1.25 8.95833 1.25C6.97648 1.25 5.55296 1.25133 4.46965 1.39698ZM5.41667 5.625C5.41667 5.27982 5.13685 5 4.79167 5C4.44649 5 4.16667 5.27982 4.16667 5.625L4.16667 12.2917C4.16667 12.6368 4.44649 12.9167 4.79167 12.9167C5.13685 12.9167 5.41667 12.6368 5.41667 12.2917L5.41667 5.625ZM13.75 8.95833C13.75 9.30351 13.4702 9.58333 13.125 9.58333L8.80055 9.58333L10.2336 11.0164C10.4777 11.2605 10.4777 11.6562 10.2336 11.9003C9.98953 12.1444 9.5938 12.1444 9.34973 11.9003L6.84973 9.40028C6.73252 9.28307 6.66667 9.12409 6.66667 8.95833C6.66667 8.79257 6.73252 8.6336 6.84973 8.51639L9.34972 6.01639C9.5938 5.77231 9.98953 5.77231 10.2336 6.01639C10.4777 6.26047 10.4777 6.6562 10.2336 6.90028L8.80055 8.33333L13.125 8.33333C13.4702 8.33333 13.75 8.61316 13.75 8.95833Z" fill="rgb(94,94,94)" fill-rule="evenodd" />
	<path id="Vector" d="M8.91052 1.76283e-07L9.00615 1.76283e-07C10.9298 -1.05526e-05 12.4373 -1.90586e-05 13.6136 0.158122C14.8175 0.319989 15.7675 0.657772 16.5132 1.40345C17.2589 2.14912 17.5967 3.09914 17.7585 4.30309C17.9167 5.47933 17.9167 6.98686 17.9167 8.91052L17.9167 9.00614C17.9167 10.9298 17.9167 12.4373 17.7585 13.6136C17.5967 14.8175 17.2589 15.7675 16.5132 16.5132C15.7675 17.2589 14.8175 17.5967 13.6136 17.7585C12.4373 17.9167 10.9298 17.9167 9.00614 17.9167L8.91052 17.9167C6.98686 17.9167 5.47933 17.9167 4.30309 17.7585C3.09914 17.5967 2.14912 17.2589 1.40345 16.5132C0.657772 15.7675 0.319989 14.8175 0.158122 13.6136C-1.90586e-05 12.4373 -1.05526e-05 10.9298 1.76283e-07 9.00615L1.76283e-07 8.91052C-1.05526e-05 6.98686 -1.90586e-05 5.47933 0.158122 4.30309C0.319989 3.09914 0.657772 2.14912 1.40345 1.40345C2.14912 0.657772 3.09914 0.319989 4.30309 0.158122C5.47933 -1.90586e-05 6.98686 -1.05526e-05 8.91052 1.76283e-07ZM2.28733 2.28733C1.81262 2.76204 1.54021 3.40431 1.39698 4.46965C1.25133 5.55296 1.25 6.97648 1.25 8.95833C1.25 10.9402 1.25133 12.3637 1.39698 13.447C1.54021 14.5124 1.81262 15.1546 2.28733 15.6293C2.76204 16.104 3.40431 16.3765 4.46965 16.5197C5.55296 16.6653 6.97648 16.6667 8.95833 16.6667C10.9402 16.6667 12.3637 16.6653 13.447 16.5197C14.5124 16.3765 15.1546 16.104 15.6293 15.6293C16.104 15.1546 16.3765 14.5124 16.5197 13.447C16.6653 12.3637 16.6667 10.9402 16.6667 8.95833C16.6667 6.97648 16.6653 5.55296 16.5197 4.46965C16.3765 3.40431 16.104 2.76204 15.6293 2.28733C15.1546 1.81262 14.5124 1.54021 13.447 1.39698C12.3637 1.25133 10.9402 1.25 8.95833 1.25C6.97648 1.25 5.55296 1.25133 4.46965 1.39698C3.40431 1.54021 2.76204 1.81262 2.28733 2.28733ZM4.79167 5C4.44649 5 4.16667 5.27982 4.16667 5.625L4.16667 12.2917C4.16667 12.6368 4.44649 12.9167 4.79167 12.9167C5.13685 12.9167 5.41667 12.6368 5.41667 12.2917L5.41667 5.625C5.41667 5.27982 5.13685 5 4.79167 5ZM13.75 8.95833C13.75 8.61316 13.4702 8.33333 13.125 8.33333L8.80055 8.33333L10.2336 6.90028C10.4777 6.6562 10.4777 6.26047 10.2336 6.01639C9.98953 5.77231 9.5938 5.77231 9.34972 6.01639L6.84973 8.51639C6.73252 8.6336 6.66667 8.79257 6.66667 8.95833C6.66667 9.12409 6.73252 9.28307 6.84973 9.40028L9.34973 11.9003C9.5938 12.1444 9.98953 12.1444 10.2336 11.9003C10.4777 11.6562 10.4777 11.2605 10.2336 11.0164L8.80055 9.58333L13.125 9.58333C13.4702 9.58333 13.75 9.30351 13.75 8.95833Z" fill-rule="evenodd" stroke="rgb(94,94,94)" stroke-width="0.000000" />
</svg>
