<svg viewBox="0 0 21.5 21.5" xmlns="http://www.w3.org/2000/svg" xmlns:xlink="http://www.w3.org/1999/xlink" width="21.500000" height="21.500000" fill="none" customFrame="#000000">
	<path id="Vector" d="M8.70055 0.54224C9.39853 0.20282 10.0419 0 10.75 0C11.4581 0 12.1015 0.202819 12.7994 0.54224C13.4741 0.870342 14.2536 1.35409 15.2271 1.95831L17.2937 3.24091C18.2149 3.81262 18.9526 4.2704 19.5211 4.70581C20.1099 5.15669 20.5621 5.61589 20.8887 6.21263C21.2146 6.80812 21.3614 7.44174 21.4318 8.1907C21.5 8.91652 21.5 9.80414 21.5 10.9172L21.5 12.5299C21.5 14.4338 21.5 15.9366 21.3473 17.1116C21.1906 18.317 20.8614 19.2901 20.1176 20.0594C19.3704 20.8324 18.4195 21.1777 17.2424 21.3414C16.1015 21.5 14.6444 21.5 12.8081 21.5L8.69185 21.5C6.85556 21.5 5.39849 21.5 4.25761 21.3414C3.08046 21.1777 2.12958 20.8324 1.38236 20.0594C0.638563 19.2901 0.309372 18.317 0.152703 17.1116C-2.45699e-05 15.9366 -1.37312e-05 14.4338 0 12.5299L0 10.9172C-7.77081e-06 9.80411 -1.3967e-05 8.91654 0.06819 8.1907C0.138567 7.44174 0.285355 6.80812 0.61131 6.21263C0.937948 5.61589 1.39015 5.15669 1.9789 4.70581C2.54744 4.2704 3.28509 3.81261 4.20628 3.2409L6.27286 1.95832C7.24642 1.35409 8.02585 0.870345 8.70055 0.54224ZM9.35654 1.8912C8.7595 2.18153 8.04529 2.62371 7.02953 3.25412L5.02953 4.49537C4.06869 5.09169 3.3941 5.51135 2.89092 5.8967C2.40133 6.27164 2.11965 6.58106 1.92709 6.93285C1.73385 7.28589 1.62103 7.69865 1.56161 8.33104C1.50076 8.97859 1.5 9.79582 1.5 10.9539L1.5 12.475C1.5 14.4459 1.50149 15.8512 1.64019 16.9183C1.77642 17.9663 2.03301 18.5744 2.46079 19.0169C2.88514 19.4558 3.46286 19.7164 4.46422 19.8557C5.48983 19.9983 6.84247 20 8.75 20L12.75 20C14.6575 20 16.0102 19.9983 17.0358 19.8557C18.0371 19.7164 18.6149 19.4558 19.0392 19.0169C19.467 18.5744 19.7236 17.9663 19.8598 16.9183C19.9985 15.8512 20 14.4459 20 12.475L20 10.9539C20 9.79582 19.9992 8.97859 19.9384 8.33104C19.879 7.69865 19.7662 7.28589 19.5729 6.93285C19.3803 6.58106 19.0987 6.27164 18.6091 5.8967C18.1059 5.51135 17.4313 5.09169 16.4705 4.49537L14.4705 3.25412C13.4547 2.62371 12.7405 2.18153 12.1435 1.89119C11.5618 1.60833 11.1498 1.5 10.75 1.5C10.3502 1.5 9.93823 1.60833 9.35654 1.8912ZM7 16.75C7 16.3358 7.33579 16 7.75 16L13.75 16C14.1642 16 14.5 16.3358 14.5 16.75C14.5 17.1642 14.1642 17.5 13.75 17.5L7.75 17.5C7.33579 17.5 7 17.1642 7 16.75Z" fill="currentColor" fill-rule="evenodd" />
</svg>
